<svg xmlns="http://www.w3.org/2000/svg" width="32" height="32"><path fill="#BF392C" d="M2 17h28a2 2 0 0 1 2 2v9a2 2 0 0 1-2 2H2a2 2 0 0 1-2-2v-9a2 2 0 0 1 2-2z"/><path fill="#324D5B" d="M16 2c1.305 0 2.402.838 2.816 2H21c0-2.209-2.238-4-5-4-2.761 0-5 1.791-5 4h2.184A2.993 2.993 0 0 1 16 2z"/><path fill="#E2574C" d="M9 4h14c3.312 0 6 2.687 6 6v20a2 2 0 0 1-2 2H5a2 2 0 0 1-2-2V10a6 6 0 0 1 6-6z"/><path fill="#BF392C" d="M6 4h20a4 4 0 0 1 4 4v4a4.001 4.001 0 0 1-4 4.001H6c-2.209 0-4-1.792-4-4.001V8a4 4 0 0 1 4-4z"/><path fill="#EFC75E" d="M8 25s.771 2 1.531 2C10.27 27 11 25 11 25V4H8v21zM21 4v21s.771 2 1.531 2C23.27 27 24 25 24 25V4h-3z"/><path fill="#E4E7E7" d="M7 23h5v-3H7v3zm13-3v3h5v-3h-5z"/></svg>