<svg xmlns="http://www.w3.org/2000/svg" width="24" height="32"><path fill="#349886" d="M5 0H4a2 2 0 0 0-2 2v10a2 2 0 0 0 2 2h1a2 2 0 0 0 2-2V2a2 2 0 0 0-2-2zm14 0h-1a2 2 0 0 0-2 2v10a2 2 0 0 0 2 2h1a2 2 0 0 0 2-2V2a2 2 0 0 0-2-2z"/><path fill="#51BBA8" d="M12 2c6.627 0 12 5.373 12 12.001V28a4 4 0 0 1-4 4H4a4 4 0 0 1-4-4V14.001C0 7.373 5.373 2 12 2z"/><path fill="#F1CD6E" d="M15.487 13.81l-2.339-2.338a1.653 1.653 0 0 0-2.338 0L8.47 13.81a1.654 1.654 0 0 0 0 2.339l2.34 2.337a1.653 1.653 0 0 0 2.338 0l2.339-2.337a1.654 1.654 0 0 0 0-2.339zM11 15.5a.5.5 0 0 1-1 0v-1a.5.5 0 0 1 1 0v1zm3 0a.5.5 0 0 1-1 0v-1a.5.5 0 0 1 1 0v1zM0 25.001h24v1H0v-1z"/><path fill="#475F6C" d="M0 28a4 4 0 0 0 4 4h16a4 4 0 0 0 4-4v-1.999H0V28z"/></svg>