<svg xmlns="http://www.w3.org/2000/svg" width="32" height="32"><path fill="#3F95D4" d="M6 4h4a1 1 0 0 1 1 1.002V25a1 1 0 0 1-1 1H6a1 1 0 0 1-1-1V5.001A1 1 0 0 1 6 4z"/><path fill="#367FB4" d="M7 25V5.001A1 1 0 0 1 8 4H6a1 1 0 0 0-1 1.001V25a1 1 0 0 0 1 1h2a1 1 0 0 1-1-1z"/><path fill="#D99666" d="M0 26h32v6H0v-6z"/><path fill="#F7CB8B" d="M5 19h6v4.002H5V19z"/><path fill="#349886" d="M12 0h6a1 1 0 0 1 1 1.002V25a1 1 0 0 1-1 1h-6a1 1 0 0 1-1-1V1.001A1 1 0 0 1 12 0z"/><path fill="#9ACCC3" d="M14 22.001h2V8h-2v14.001zM14 4v2h2V4h-2z"/><path fill="#E2574C" d="M20 6h6a1 1 0 0 1 1 1v18a1 1 0 0 1-1 1h-6a1 1 0 0 1-1-1V7a1 1 0 0 1 1-1z"/><path fill="#D2AD77" d="M5 19h2v4.002H5z"/><path fill="#2C8172" d="M13 25V1.001A1 1 0 0 1 14 0h-2a1 1 0 0 0-1 1.001V25a1 1 0 0 0 1 1h2a1 1 0 0 1-1-1z"/><path fill="#C04A40" d="M21 25V7a1 1 0 0 1 1-1h-2a1 1 0 0 0-1 1v18a1 1 0 0 0 1 1h2a1 1 0 0 1-1-1z"/><path fill="#F7CB8B" d="M19 16h8v-4h-8v4zm0-6v1.002h8V10h-8z"/><g fill="#D2AD77"><path d="M19 10h2v1.002h-2zM19 12h2v4h-2z"/></g></svg>