<svg xmlns="http://www.w3.org/2000/svg" width="32.031" height="32.006"><path fill="#EFF1F1" d="M4.015.003h24a4 4 0 0 1 4 4v24a4 4 0 0 1-4 4h-24a4 4 0 0 1-4-4v-24a4 4 0 0 1 4-4z"/><path fill="#EFF1F1" d="M4.015 3.003h24a4 4 0 0 1 4 4v21a4 4 0 0 1-4 4h-24a4 4 0 0 1-4-4v-21a4 4 0 0 1 4-4z"/><path fill="#EFF1F1" d="M4.015 6.003h24a4 4 0 0 1 4 4v18a4 4 0 0 1-4 4h-24a4 4 0 0 1-4-4v-18a4 4 0 0 1 4-4z"/><path fill="#D7D8D8" d="M28.015.003h-24a4 4 0 0 0-4 4v1a4 4 0 0 1 4-4h24a4 4 0 0 1 4 4v-1a4 4 0 0 0-4-4z"/><path fill="#D7D8D8" d="M28.015 3.003h-24a4 4 0 0 0-4 4v1a4 4 0 0 1 4-4h24a4 4 0 0 1 4 4v-1a4 4 0 0 0-4-4z"/><path fill="#D7D8D8" d="M28.015 6.003h-24a4 4 0 0 0-4 4v1a4 4 0 0 1 4-4h24a4 4 0 0 1 4 4v-1a4 4 0 0 0-4-4z"/><path fill="#E2574C" d="M8.015 3.003h16v24.001l-7.997-5.001-8.003 5.001V3.003z"/><path fill="#B5463D" d="M8.015 3.003h16v4h-16z"/></svg>