<svg xmlns="http://www.w3.org/2000/svg" width="32" height="26"><path fill="#2B414D" d="M19 0h-6a2 2 0 0 0-2 2v2h2v-.999C13 2.449 13.448 2 14 2h4a1 1 0 0 1 1 1.002V4h2V2a2 2 0 0 0-2-2z"/><path fill="#475F6C" d="M2 4h27a2 2 0 0 1 2 2v18a2 2 0 0 1-2 2H3a2 2 0 0 1-2-2V6C1 4.896.896 4 2 4z"/><path fill="#2B414D" d="M2 4h28a2 2 0 0 1 2 2v6a2 2 0 0 1-2 2H2a2 2 0 0 1-2-2V6a2 2 0 0 1 2-2z"/><path fill="#EFC75E" d="M6 21s.771 2 1.531 2C8.271 23 9 21 9 21V4H6v17zM23 4v17s.771 2 1.531 2C25.27 23 26 21 26 21V4h-3z"/><path fill="#E4E7E7" d="M5 19h5v-3H5v3zm17-3v3h5v-3h-5z"/><path fill="#EFC75E" d="M16 7a2 2 0 1 1-.001 4.001A2 2 0 0 1 16 7z"/></svg>