<svg xmlns="http://www.w3.org/2000/svg" width="32" height="32.007"><path fill="#2D4552" d="M2.004 28.98l.024 2.992h6.958l.024-2.992c-.002.008-6.998 0-7.006 0zm27.992 0l-7.006.031.023 2.961h6.99l-.007-2.992z"/><g fill="#324D5B"><path d="M8.986 30.972H2.028l-.016-1.992h-.008l.024 2.992h6.958l.024-2.992h-.008zM23.014 30.972l-.016-1.961h-.008l.024 2.961h6.99l-.003-1z"/></g><path fill="#1F2F37" d="M2.979 31.972h1.036V28.98H2.979v2.992zm1.997 0h1.036V28.98H4.976v2.992zm2.024 0h.977V28.98H7v2.992zm21.018-2.961v2.961h1.004v-2.961h-1.004zm-1.997 2.961h.973v-2.961h-.973v2.961zm-2.029.031H25v-2.992h-1.008v2.992z"/><path fill="#BF392C" d="M3.016.003h26a2 2 0 0 1 2 2v25a1.999 1.999 0 0 1-2 1.998h-26a2 2 0 0 1-2-1.998v-25a2 2 0 0 1 2-2z"/><path fill="#fff" d="M29.016 5.031v-1.03a1 1 0 0 0-1-1h-24a1 1 0 0 0-1 1v1.027h-.03l.023 10.98 26.005.002.007-10.98h-.005z"/><path fill="#CCD0D2" d="M.008 26.986h31.984v1.994H.008v-1.994z"/><path fill="#fff" d="M2.997 24.021h6.032V18.97H2.997v5.051zm26.026-5.051H22.99v5.051h6.033V18.97z"/><path fill="#F5B863" d="M4.01 22.992h3.984V19.99H4.01v3.002zm23.977-3.002h-3.97v3.002h3.97V19.99z"/><path fill="#E4E7E7" d="M11.005 23.994h10.011v-.998H11.005v.998zm0-1.996h10.011V20.97H11.005v1.028zm0-3.028v1.027h10.011V18.97H11.005z"/><path fill="#F0F0F0" d="M3.018 16.009l12.998.001V3.001h-12a.998.998 0 0 0-.998.99v12.018z"/><path fill="#202D35" d="M28.018 29.011h1.004v2.961h-1.004zM23.992 29.011H25v2.992h-1.008z"/><path fill="#23343D" d="M2.979 30.972h1.036v1H2.979zM7 30.972h.977v1H7zM4.976 30.972h1.036v1H4.976zM28.018 30.972h1.004v1h-1.004zM26.021 30.972h.973v1h-.973zM23.992 30.972H25v1h-1.008z"/></svg>