<svg xmlns="http://www.w3.org/2000/svg" width="28" height="32"><path fill="#EAEDED" d="M2 0h24a2 2 0 0 1 2 2v28a2 2 0 0 1-2 2H2a2 2 0 0 1-2-2V2a2 2 0 0 1 2-2z"/><path fill="#D3D6D8" d="M3 3h22v7H3V3z"/><path fill="#B7BBBD" d="M19 5v3h4V5h-4zm3 2h-2V6h2v1z"/><path fill="#49616E" d="M3 16.999h4v-4H3v4zm6 0h4v-4H9v4zM15 13v4h4v-4h-4zM3 22.999h4V19H3v3.999zm6 0h4V19H9v3.999zm6 0h4V19h-4v3.999zm-12 6h4v-4H3v4zm6 0h4v-4H9v4zm6 0h4v-4h-4v4z"/><path fill="#E2574C" d="M21 13v4h4v-4h-4zm0 15.999h4V19h-4v9.999z"/></svg>