<svg xmlns="http://www.w3.org/2000/svg" width="31.984" height="26"><path fill="#2D4552" d="M1.996 22.979l.024 2.99h6.958L9 22.979c0 .007-6.995-.002-7.004 0zm27.992 0l-7.006.031.023 2.959h6.988l-.005-2.99z"/><path fill="#202D35" d="M2.971 25.969h1.036v-2.99H2.971v2.99zm1.998 0h1.036v-2.99H4.969v2.99zm2.023 0h.978v-2.99h-.978v2.99zM28.01 23.01v2.959h1.004V23.01H28.01zm-1.998 2.959h.974V23.01h-.974v2.959zM23.984 26h1.008v-2.99h-1.008V26z"/><path fill="#BF392C" d="M28 .994C28 .411 27.601 0 26.995 0H5.021c-.607 0-1.006.411-1.006.994V9h23.983L28 .994zM1.023 12.004v8.98h29.969v-8.98H1.023z"/><path fill="#fff" d="M26.013 1.966l-.006 7.044-20.005-.002-.024-7.044 20.035.002z"/><path fill="#F0F0F0" d="M6.01 1.966h9.998v7.046H6.01V1.966z"/><path fill="#E2574C" d="M27.96 9.009H4.024l-2.945 2.988 29.895.007-3.014-2.995z"/><path fill="#CCD0D2" d="M0 20.983h31.984v1.995H0v-1.995z"/><path fill="#fff" d="M2.996 18.989l6.002.028.023-5.054-6.032.004.007 5.022zm26.013-4.992l-6.033-.029.008 5.021 6.032.028-.007-5.02z"/><path fill="#F4B459" d="M4.002 17.983h3.984v-2.995H4.002v2.995zm23.969-2.988l-3.962.002.008 2.965 3.962.029-.008-2.996z"/><path fill="#E4E7E7" d="M10.966 18.991h10.043v-2.027H10.966v2.027zm0-5.024v2.029h10.043v-2.029H10.966z"/></svg>