<svg xmlns="http://www.w3.org/2000/svg" width="31.998" height="23"><path fill="#39B29D" d="M25.913 8.143C25.475 3.58 21.676 0 16.999 0c-3.619 0-6.718 2.148-8.146 5.23A4.46 4.46 0 0 0 7.5 5 4.501 4.501 0 0 0 3 9.5c0 .494.099.961.246 1.404C1.313 12.031 0 14.101 0 16.499a6.5 6.5 0 0 0 6.5 6.5V23h17.999v-.001a7.498 7.498 0 0 0 7.499-7.5c0-3.657-2.62-6.694-6.085-7.356zm-4.253 2.931l-6.001 6.57a1.03 1.03 0 0 1-.912.328c-.369.105-.774.02-1.063-.298l-2.363-2.587a1.295 1.295 0 0 1 0-1.719 1.043 1.043 0 0 1 1.57 0l1.771 1.939 5.433-5.948a1.04 1.04 0 0 1 1.565 0 1.294 1.294 0 0 1 0 1.715z"/></svg>