<svg xmlns="http://www.w3.org/2000/svg" width="31.998" height="23"><path fill="#39B29D" d="M25.913 8.143C25.474 3.58 21.675 0 16.999 0c-3.62 0-6.718 2.148-8.146 5.23A4.434 4.434 0 0 0 7.5 5 4.501 4.501 0 0 0 3 9.5c0 .494.099.961.246 1.404C1.312 12.031 0 14.1 0 16.498a6.5 6.5 0 0 0 6.5 6.5V23h18v-.002a7.497 7.497 0 0 0 7.498-7.5c-.001-3.656-2.62-6.693-6.085-7.355zm-5.146 6.48l-3.781 3.727c-.763.765-1.233.74-1.974 0l-3.781-3.727c-.542-.885-.099-1.609.987-1.609h1.781V9.002c0-.553.448-1.002 1-1.002h2a1 1 0 0 1 1 1.002v4.012h1.779c1.086 0 1.532.724.989 1.609z"/></svg>