<svg xmlns="http://www.w3.org/2000/svg" width="31.998" height="23"><path fill="#39B29D" d="M25.913 8.143C25.475 3.58 21.676 0 16.999 0c-3.619 0-6.718 2.148-8.146 5.23A4.429 4.429 0 0 0 7.5 5 4.501 4.501 0 0 0 3 9.5c0 .494.099.961.246 1.404C1.313 12.031 0 14.1 0 16.498a6.5 6.5 0 0 0 6.5 6.5V23h17.999v-.002a7.497 7.497 0 0 0 7.499-7.5c0-3.656-2.62-6.693-6.085-7.355zM19.779 13.9h-1.78v4.012a1 1 0 0 1-1 1.002h-2c-.552 0-1-.449-1-1.002V13.9h-1.781c-1.086 0-1.529-.725-.987-1.609l3.781-3.727c.741-.74 1.21-.765 1.974 0l3.781 3.727c.544.885.098 1.609-.988 1.609z"/></svg>