<svg xmlns="http://www.w3.org/2000/svg" width="31.998" height="23"><path fill="#39B29D" d="M25.913 8.143C25.475 3.58 21.676 0 16.999 0c-3.619 0-6.718 2.148-8.146 5.23A4.46 4.46 0 0 0 7.5 5 4.501 4.501 0 0 0 3 9.5c0 .494.099.961.246 1.404C1.313 12.031 0 14.101 0 16.499a6.5 6.5 0 0 0 6.5 6.5V23h17.999v-.001a7.498 7.498 0 0 0 7.499-7.5c0-3.657-2.62-6.694-6.085-7.356zm-15.072 7.504L8.981 13.8c-.268-.438-.049-.795.485-.795h.814C10.351 9.678 13.034 7 16.342 7c1.677 0 3.193.688 4.291 1.799l-1.359 1.316a4.144 4.144 0 0 0-2.932-1.222c-2.295-.011-4.094 1.862-4.157 4.112h1.003c.532 0 .752.357.485.795l-1.861 1.847c-.267.438-.704.438-.971 0zm12.158-2.653h-.816C22.112 16.322 19.42 19 16.104 19a6.04 6.04 0 0 1-4.303-1.799l1.363-1.315a4.162 4.162 0 0 0 2.939 1.221c2.302.013 4.104-1.862 4.168-4.112h-1.004c-.536 0-.755-.357-.487-.795l1.865-1.847c.269-.437.706-.437.974 0l1.865 1.847c.269.437.05.794-.485.794z"/></svg>