<svg xmlns="http://www.w3.org/2000/svg" width="32" height="32"><path fill="#E89C25" d="M16 0C7.163 0 0 7.164 0 16s7.163 16 16 16 16-7.164 16-16S24.837 0 16 0zm0 22a6 6 0 1 1 0-12 6 6 0 0 1 0 12z"/><path fill="#7A482E" d="M31.866 17.968c.08-.646.134-1.298.134-1.964a15.943 15.943 0 0 0-1.661-7.071C27.728 3.646 22.296 0 16 0 7.163 0 0 7.164 0 16c0 .328.03.65.049.974a13.928 13.928 0 0 0 2.002-.204c4.498-.834 4.932-2.133 8.455-3.18A6.003 6.003 0 0 1 16 10a6 6 0 0 1 6 6l-.007.136c2.765 1.603 8.914 1.809 9.873 1.832z"/><path fill="#946C57" d="M16 4.629c6.904 0 12.536 5.387 12.959 12.186.017-.272.041-.541.041-.815 0-7.18-5.82-13-13-13S3 8.82 3 16c0 .274.024.543.041.814C3.464 10.016 9.095 4.629 16 4.629z"/><path d="M23 15a6 6 0 0 0-6-6c-1.911 0-3.61.896-4.71 2.29A5.97 5.97 0 0 1 16 10a6 6 0 0 1 6 6 5.968 5.968 0 0 1-1.29 3.71A5.985 5.985 0 0 0 23 15zm-6 16C8.163 31 1 23.836 1 15c0-4.164 1.604-7.943 4.21-10.79C2.016 7.135 0 11.326 0 16c0 8.836 7.163 16 16 16 4.673 0 8.864-2.016 11.79-5.21C24.943 29.396 21.164 31 17 31z" fill="#BB7E1F"/><path fill="#623A25" d="M21.993 16.136c.242.141.517.267.805.386A5.97 5.97 0 0 0 23 15a6 6 0 0 0-6-6c-1.911 0-3.61.896-4.71 2.29l.135-.089c.173-.13.353-.249.539-.359l.258-.146c.191-.101.389-.188.591-.267l.283-.11c.213-.072.434-.125.657-.173l.273-.062c.318-.053.642-.084.974-.084a6 6 0 0 1 6 6l-.007.136zM1.123 16.898A16.076 16.076 0 0 1 1 15c0-4.164 1.604-7.943 4.21-10.79-.398.364-.777.749-1.137 1.15l-.007.008c-.35.392-.68.803-.991 1.229l-.04.053c-.293.405-.565.825-.821 1.256l-.078.13a15.68 15.68 0 0 0-.645 1.25l-.108.224c-.178.398-.332.808-.477 1.222l-.119.324c-.127.39-.229.791-.327 1.194l-.105.41c-.085.4-.144.811-.198 1.221l-.065.43C.032 14.865 0 15.429 0 16c0 .328.03.65.049.974.35-.013.714-.038 1.074-.076z"/></svg>