<svg xmlns="http://www.w3.org/2000/svg" width="32" height="32.007"><path fill="#E4E7E7" d="M16 .004c8.837 0 16 7.163 16 16 0 8.836-7.163 16-16 16s-16-7.164-16-16c0-8.837 7.163-16 16-16z"/><path fill="#26A6D1" d="M16 5.003c6.075 0 11 4.925 11 11 0 6.074-4.925 11-11 11s-11-4.926-11-11c0-6.075 4.925-11 11-11z"/><path fill="#324D5B" d="M16 10.003a6 6 0 1 1 0 12 6 6 0 0 1 0-12z"/><path fill="#D4EDF6" d="M20.5 10.003a2.5 2.5 0 1 1 0 5 2.5 2.5 0 0 1 0-5z"/><path fill="#D6DBDE" d="M21.831 14.613a6.001 6.001 0 0 0-3.046-3.921A2.485 2.485 0 0 0 18 12.503a2.5 2.5 0 0 0 2.5 2.5 2.48 2.48 0 0 0 1.331-.39z"/><path fill="#2296BD" d="M17 26.003c-6.075 0-11-4.926-11-11 0-2.783 1.042-5.317 2.746-7.254C6.454 9.765 5 12.711 5 16.003c0 6.074 4.925 11 11 11 3.292 0 6.238-1.454 8.254-3.746A10.946 10.946 0 0 1 17 26.003z"/></svg>