<svg xmlns="http://www.w3.org/2000/svg" width="32" height="30"><path fill="#DDAF6D" d="M18 0h-4C8.477 0 1 4.478 1 10v1a1 1 0 0 0 1 1h28a1 1 0 0 0 1-1v-1c0-5.522-7.477-10-13-10zM1 28a2 2 0 0 0 2 2h26a2 2 0 0 0 2-2v-2H1v2z"/><path fill="#BB6F39" d="M2 22h28a2 2 0 0 1 0 4H2a2 2 0 0 1 0-4z"/><path fill="#EFC75E" d="M2 18h28v4h-2l-3 3-2.996-3H2v-4z"/><path fill="#3DB39E" d="M30 15.051V15H2v.051A2.499 2.499 0 0 0 2.5 20a2.498 2.498 0 0 0 2.449-2H9c0 1.104 1.119 2 2.5 2s2.5-.896 2.5-2h4c0 1.104 1.119 2 2.5 2s2.5-.896 2.5-2h4.051A2.5 2.5 0 1 0 30 15.051z"/><path fill="#BF392C" d="M2 12h28v3H2v-3z"/><path d="M2 12h2a1 1 0 0 1-1-1v-1C3 4.478 10.477 0 16 0h-2C8.477 0 1 4.478 1 10v1a1 1 0 0 0 1 1zm1 16v-2H1v2a2 2 0 0 0 2 2h2a2 2 0 0 1-2-2z" fill="#C69D63"/><path fill="#A86433" d="M2 24a2 2 0 0 1 2-2H2a2 2 0 0 0 0 4h2a2 2 0 0 1-2-2z"/><path d="M2 17.5c0-1.21.859-2.218 2-2.449V15H2v.051A2.499 2.499 0 0 0 2.5 20c.354 0 .688-.081.994-.214A2.5 2.5 0 0 1 2 17.5zm9 .5H9c0 1.104 1.119 2 2.5 2 .356 0 .693-.062 1-.169-.882-.31-1.5-1.011-1.5-1.831zm9 0h-2c0 1.104 1.119 2 2.5 2a3.04 3.04 0 0 0 1-.169C20.618 19.521 20 18.82 20 18zm9.051 0h-2a2.497 2.497 0 0 0 3.455 1.786A2.498 2.498 0 0 1 29.051 18z" fill="#37A18E"/></svg>