<svg xmlns="http://www.w3.org/2000/svg" width="26.988" height="32"><path fill="#E49C86" d="M14.995 25v5.002a2 2 0 0 1-2 2h-8a2 2 0 0 1-2-2V25h12z"/><path fill="#CD8C78" d="M2.995 29.692c.364.19.711.308 1.008.308H14.01c.29 0 .63-.095.985-.248V26h-12v3.692z"/><path fill="#E7A793" d="M26.725 16.906s-1.592-2.196-6.355.109c-.661.41-1.553.943-2.39 1.464V1.998C17.98.894 17.114 0 16.003 0a2.004 2.004 0 0 0-2.008 1.998v11.015H3.987V5.01a1.976 1.976 0 0 0-1.979-1.996A2.003 2.003 0 0 0 0 5.01v19.009C0 25.423 2.582 28 4.002 28h10.007c1.069 0 2.794-1.209 3.583-2.406.586-.635 3.233-3.311 8.412-5.922.944-.559 1.266-1.797.721-2.766z"/><path fill="#BA8776" d="M3.995 12.993h8l.014 7.963c0 1.135-.897 2.053-2.007 2.053s-2.007-.918-2.007-2.053c0 1.135-.898 2.053-2.007 2.053s-2.008-.918-2.008-2.053l.015-7.963z"/><path fill="#E9B09E" d="M10.992 10c-1.105 0-2.001.923-2.001 2.062 0-1.14-.896-2.062-2.001-2.062-1.106 0-2.001.923-2.001 2.062v6.876c0 1.14.895 2.062 2.001 2.062 1.104 0 2.002-.922 2.002-2.062 0 1.14.896 2.062 2.001 2.062 1.104 0 2.001-.922 2.001-2.062v-6.876C12.993 10.923 12.098 10 10.992 10z"/><path fill="#EAC3B6" d="M10.995 17a2 2 0 0 0-2 2 2 2 0 0 0-4 0v1a2 2 0 0 0 4 0 2 2 0 0 0 4 0v-1a2 2 0 0 0-2-2z"/></svg>