<svg xmlns="http://www.w3.org/2000/svg" width="32" height="32"><path d="M3.664 22.673L22.436 3.901a.989.989 0 0 0-.154-1.183 5 5 0 0 0-7.07 0L2.483 15.447a5.001 5.001 0 0 0 0 7.071.987.987 0 0 0 1.181.155zM28.398 9.264L9.059 28.603a1.02 1.02 0 0 0 .227 1.089 5.102 5.102 0 0 0 7.215 0l12.986-12.986a5.101 5.101 0 0 0 0-7.214 1.02 1.02 0 0 0-1.089-.228z" fill="#F6C37A"/><path fill="#DDAF6D" d="M10.457 28.626a1.021 1.021 0 0 1 0-1.443l17.9-17.9c-.113.05-.221.116-.313.208L9.286 28.248a1.021 1.021 0 0 0 0 1.443 5.101 5.101 0 0 0 7.214 0l.595-.595c-1.997 1.487-4.825 1.342-6.638-.47zM3.661 22.675l.986-.985a.986.986 0 0 1-.993-.236c-1.803-1.804-1.861-4.855-.325-6.852l-.846.846a5.001 5.001 0 0 0 0 7.071.989.989 0 0 0 1.178.156z"/><path fill="#E37948" d="M30.828 1.171a4.006 4.006 0 0 1 0 5.663L6.834 30.827a4.003 4.003 0 1 1-5.662-5.662L25.166 1.171a4.003 4.003 0 0 1 5.662 0z"/><path fill="#EFC75E" d="M22.988 6.012a1 1 0 0 0-1.001 1.001v1.992h-2.008a.998.998 0 0 0-.927.631c-.051.121-.08.253-.08.393v1.993h-1.939l-.045-.009a.986.986 0 0 0-.396.084.997.997 0 0 0-.629.926l.024.126v1.856H13.98a1 1 0 0 0-.927.63.996.996 0 0 0-.081.395v1.993h-1.935l-.048-.01a.98.98 0 0 0-.399.085.996.996 0 0 0-.628.925l.025.126v1.858H7.98a1 1 0 1 0 0 2.002h2.966l.044.009a1 1 0 0 0 1.001-1.001v-1.992h1.934l.048.01c.553 0 1.002-.449 1.002-1.002v-2.024h1.971l.043.009a1 1 0 0 0 1.002-1v-1.993h1.938l.044.009a1 1 0 0 0 1-1v-2.025h1.967l.049.01c.554 0 1.002-.448 1.002-1.001V7.013a1.002 1.002 0 0 0-1.003-1.001z"/><path fill="#CC6D41" d="M7.834 29.827a4.003 4.003 0 1 1-5.662-5.662l-1 1a4.005 4.005 0 0 0 5.662 5.662L30.828 6.834 7.834 29.827z"/></svg>