<svg xmlns="http://www.w3.org/2000/svg" width="32" height="32.007"><path fill="#CCCFD1" d="M5.996.015c1.959 0 20.753 2.035 20.753 2.035l2.247 5.965h-20s-9-2.016-9-4c0-1.892 4.041-4 6-4z"/><path fill="#B7BABC" d="M25.857 1.954c-1.461-.157-4.54-.486-7.861-.83v6.891h7l1.753-5.965-.892-.096z"/><path fill="#D9DCDD" d="M6.419 7.58c1.081.272 2.033.435 2.577.435h16.799c-.927-2.282-4.961-4-9.799-4-4.524 0-8.343 1.504-9.577 3.565z"/><path fill="#C2C4C5" d="M17.996 4.119v3.896h7V6.838c-1.339-1.381-3.91-2.405-7-2.719z"/><path fill="#BF392C" d="M3.768 21.8L21.812 3.755a5.972 5.972 0 0 1 8.444 8.445L12.212 30.245A5.972 5.972 0 0 1 3.768 21.8z"/><path fill="#E4E5E5" d="M9.984 25.494l.734-.734a1.04 1.04 0 0 0 0-1.468 1.04 1.04 0 0 0-1.469 0l-.734.733-.733-.733a1.039 1.039 0 0 0-1.469 1.468l.734.734-.734.734a1.039 1.039 0 0 0 1.469 1.468l.733-.733.734.733a1.04 1.04 0 0 0 1.469 0 1.04 1.04 0 0 0 0-1.468l-.734-.734z"/></svg>