<svg xmlns="http://www.w3.org/2000/svg" width="31.987" height="31.99" viewBox="0.007 0 31.987 31.99"><path fill-rule="evenodd" clip-rule="evenodd" fill="#26A6D1" d="M.801 18.141l13.11 13.058a2.717 2.717 0 0 0 3.835 0l12.893-12.728c1.355-1.351 1.355-4.315 1.355-4.952V2.717C31.994 1.225 30.909 0 29.412 0L17.985.016c-1.808 0-3.163.45-4.519 1.801L.801 14.321a2.694 2.694 0 0 0 0 3.82z"/><path fill="#156E8D" d="M25.494 9.002c-1.379 0-2.5-1.121-2.5-2.5s1.121-2.5 2.5-2.5 2.5 1.122 2.5 2.5c0 1.379-1.121 2.5-2.5 2.5z"/><path fill-rule="evenodd" clip-rule="evenodd" fill="#93D3E8" d="M18.1 8.285a.992.992 0 0 0-1.404 0l-8.419 8.418a.992.992 0 1 0 1.403 1.404l8.42-8.42a.993.993 0 0 0 0-1.402zm2.805 2.806a.991.991 0 0 0-1.403 0l-8.419 8.419a.992.992 0 1 0 1.403 1.404l8.419-8.42a.991.991 0 0 0 0-1.403zm2.807 2.806a.993.993 0 0 0-1.403 0l-8.42 8.419a.992.992 0 1 0 1.404 1.402l8.419-8.418a.991.991 0 0 0 0-1.403z"/><path fill-rule="evenodd" clip-rule="evenodd" fill="#fff" d="M25.494 5.002a1.5 1.5 0 1 1 0 3 1.5 1.5 0 0 1 0-3z"/></svg>