<svg xmlns="http://www.w3.org/2000/svg" width="31.922" height="31.986"><path fill="#4ED5BD" d="M31.922 31.966l-6.986-10.973-17.902.021L0 31.966l16.039.021 15.883-.021z"/><path fill="#F4B459" d="M16-.001c-5.52 0-9.995 4.233-9.995 9.455 0 .208.189 3.026.924 4.296C9.402 19.114 15.99 25.028 16 25.007c.009.031 6.625-5.918 9.086-11.287.859-1.733.909-4.164.909-4.266 0-5.221-4.475-9.455-9.995-9.455zm-.001 14.004a4 4 0 1 1 0-8 4 4 0 0 1 0 8z"/><path fill="#CCA032" d="M15.999 5.003a5 5 0 1 0 0 10 5 5 0 0 0 0-10zm0 8a3 3 0 1 1 0-6 3 3 0 0 1 0 6z"/><path fill="#26A6D1" d="M22.999 28.003c-1.251.559-3.952 1.016-5.017 1.012-.918-.006-3.708-.592-4.983-1.012-.122-.039-3.574-1.736-6-2-2.524-.271-3 0-3 0l-.862 1.078L0 31.966l16.039.021 15.883-.021-4.291-6.738c-1.111.675-4.413 2.677-4.632 2.775z"/></svg>