<svg xmlns="http://www.w3.org/2000/svg" width="28" height="32"><path fill="#E2574C" d="M27 14a2 2 0 0 1-2-2V3a1 1 0 0 0-1-1H4a1 1 0 0 0-1 1v9a2 2 0 0 1-2 2H0v16a2 2 0 0 0 2 2h24a2 2 0 0 0 2-2V14h-1z"/><path d="M6 24l-6 6a2 2 0 0 0 2 2h8v-8H6zm12 0v8h8a2 2 0 0 0 2-2l-6-6h-4z" fill="#BB493F"/><path fill="#C5493E" d="M25 6H3v1h22V6zm0 5H3v1h22v-1zM0 16v1h28v-1H0zm0 6h28v-1H0v1zm0 5h28v-1H0v1z"/><path fill="#DB5145" d="M14.085 11h.916v21h-.916V11z"/><path fill="#B5463D" d="M9 0h10a2 2 0 0 1 2 2v3c0 1.105-4.896 6-6 6h-2c-1.104 0-6-4.895-6-6V2a2 2 0 0 1 2-2z"/><path fill="#88342E" d="M11.429 2h5.144c.789 0 1.429.537 1.429 1.199V4c0 .662-2.777 4-3.566 4h-.867c-.788 0-3.566-3.338-3.566-4v-.8C10 2.538 10.64 2 11.429 2z"/><g fill="#AF4437"><path d="M10 27v-1H4l-1 1zM24 26h-6v1h7z"/></g><path fill="#A14034" d="M13 11h1.084v21H13V11z"/><g fill="#C4463A"><path d="M14.085 26h.916v1h-.916zM14.085 21h.916v1h-.916zM14.085 16h.916v1h-.916zM14.085 11h.916v1h-.916z"/></g><path d="M27.82 30.82L22 25h-3v7h7c.811 0 1.507-.485 1.82-1.18zM6 25L.18 30.82A1.996 1.996 0 0 0 2 32h7v-7H6z" fill="#E2574C"/></svg>