<svg xmlns="http://www.w3.org/2000/svg" width="32" height="29.002"><path fill="#324D5B" d="M20 0h-8a2 2 0 0 0-2 2v3h2V3a1 1 0 0 1 1-1h6a1 1 0 0 1 1 1v2h2V2c0-1.103-.896-2-2-2z"/><path fill="#E2574C" d="M2 5.001h28a2 2 0 0 1 2 2.001v20a2 2 0 0 1-2 2H2a2 2 0 0 1-2-2v-20a2 2 0 0 1 2-2.001z"/><path fill="#fff" d="M21 15h-3v-2.998A1 1 0 0 0 17 11h-2a1 1 0 0 0-1 1.002V15h-3a1 1 0 0 0-1 1v2a1 1 0 0 0 1 1.002h3V22c0 .554.447 1 1 1h2c.553 0 1-.446 1-1v-2.998h3A1 1 0 0 0 22 18v-2c0-.55-.447-1-1-1z"/><path d="M2 5.001a2 2 0 0 0-2 2.001v4.999l7-7H2zm-.01 24H7L0 22v5.002c0 1.101.89 1.994 1.99 1.999zm28.01-24h-5l7 7V7.002a2 2 0 0 0-2-2.001zm.01 24A2 2 0 0 0 32 27.002V22l-7 7.001h5.01z" fill="#BF392C"/></svg>