<svg xmlns="http://www.w3.org/2000/svg" width="32" height="32"><path fill="#DBDEE0" d="M30.928 10.719c.043-.235.072-.473.072-.719a4 4 0 0 0-4-4 3.985 3.985 0 0 0-3.577 2.243A2.988 2.988 0 0 0 21 6.999 3 3 0 0 0 18 10c0 .243.036.477.092.703A2.978 2.978 0 0 0 17 13a3 3 0 0 0 3 3h9a3 3 0 0 0 3-3 2.98 2.98 0 0 0-1.072-2.281z"/><path fill="#3DB39E" d="M16 .001L32 32H0L16 .001z"/><path fill="#E4E7E7" d="M10 11.001L13 14l3-2.999L19 14l3-2.999L17 0h-2l-5 11.001z"/><path fill="#4A4A4A" d="M18 29.001h2V32h-2v-2.999z"/><path fill="#277264" d="M23.966 29.001L20.793 25H23l-4-5-4 5h2.2L14 29.001z"/><path fill="#349886" d="M7 18L0 32h1l14-14z"/><path fill="#ECEEEE" d="M13.928 14.719c.042-.235.072-.473.072-.719a4 4 0 0 0-4-4 3.985 3.985 0 0 0-3.577 2.243A2.988 2.988 0 0 0 4 10.999 3 3 0 0 0 1 14c0 .243.036.477.091.703A2.98 2.98 0 0 0 0 17a3 3 0 0 0 3 3h9a3 3 0 0 0 3-3 2.98 2.98 0 0 0-1.072-2.281z"/></svg>