<svg xmlns="http://www.w3.org/2000/svg" width="32" height="31"><path fill="#D07C40" d="M4 17h24l-3 14H7L4 17z"/><path fill="#CD9770" d="M15.469 31H16.5l.5-13h-2l.469 13zM12 31h1V18h-2l1 13zM7 18l2 13h1L9 18H7zm12 13h1l1-13h-2v13zm4-13l-1 13h1l2-13h-2z"/><path fill="#C1733B" d="M3 17l3.001 14h7.996L28 17H3z"/><g fill="#BF8C68"><path d="M17 18h-2l.417 11.58 1.183-1.183zM11 18l1 13h1V18zM21 18h-2v7.998l1.5-1.5zM7 18l2 13h1L9 18zM25 18h-2l-.333 4.332 1.97-1.969z"/></g><path fill="#F4B459" d="M32 14.53c0-3.248-3.229-3.353-3.229-3.353l.026-.561c0-4.629-3.424-8.632-7.844-8.632-.774 0-1.681.372-2.392.588C17.74 1.044 16.194 0 14.399 0c-2.092 0-3.76 1.411-4.417 3.367L9.6 3.354c-3.534 0-6.618 2.721-6.618 6.115 0 .582.309 1.174.466 1.709H3.2c-1.768 0-3.2 1.501-3.2 3.353v1.117c0 1.853 1.433 3.321 3.2 3.321.944 0 1.783-.312 2.369-.992H7.23c.586.681 1.426.992 2.369.992.944 0 1.783-.312 2.369-.992h1.662c.586.681 1.425.992 2.369.992.944 0 1.783-.312 2.369-.992h1.661c.587.681 1.425.992 2.369.992.943 0 1.783-.312 2.369-.992h1.66c.586.681 1.426.992 2.369.992 1.768 0 3.201-1.469 3.201-3.321L32 14.53z"/><path fill="#C39047" d="M8.5 12a1.5 1.5 0 1 0 0 3 1.5 1.5 0 0 0 0-3zm3-5a1.5 1.5 0 1 0 0 3 1.5 1.5 0 0 0 0-3zM20 6a2 2 0 1 0 .001 4.001A2 2 0 0 0 20 6zm4.5 6a1.5 1.5 0 1 0 .001 3.001A1.5 1.5 0 0 0 24.5 12zM16 12a1 1 0 1 0 0 2 1 1 0 0 0 0-2z"/></svg>