<svg xmlns="http://www.w3.org/2000/svg" width="32" height="32.086"><path fill="#D07C40" d="M32 12.087a2.989 2.989 0 0 0-.709-1.154L18.125.948c-1.717-1.265-2.592-1.265-4.28 0L.736 10.933a2.991 2.991 0 0 0-.71 1.154l15.959 14 16.015-14z"/><path fill="#E4E7E7" d="M4 3.088h24v19.999H4V3.088z"/><path fill="#E8AB54" d="M1.648 30.751l14.333-11.165 14.37 11.166a3.004 3.004 0 0 0 1.258-1.211L18.125 18.95c-1.702-1.256-2.597-1.276-4.28 0L.382 29.524c.29.526.728.953 1.266 1.227z"/><path fill="#C2C5C5" d="M8 8.088v2h16v-2H8zm0 5.999h16v-1.999H8v1.999z"/><path fill="#E8AB54" d="M16 24.087l16-12v17a3 3 0 0 1-3 3H3a3 3 0 0 1-3-3v-17l16 12z"/><path fill="#F4B459" d="M29.32 32.054a2.97 2.97 0 0 0 1.691-.756l-15.03-11.713L.986 31.298a2.975 2.975 0 0 0 1.693.757l26.641-.001z"/><path fill="#F9D7A7" d="M.382 30.524c.29.526.729.953 1.266 1.228l14.333-11.164 14.37 11.165a3.004 3.004 0 0 0 1.258-1.211L18.125 19.948c-1.889-1.399-2.347-1.463-4.28 0L.382 30.524z"/></svg>