<svg xmlns="http://www.w3.org/2000/svg" width="30" height="32"><path fill="#E2574C" d="M15 0C6.716 0 0 6.715 0 14.996v8h.005C.003 25.501 0 31.884.01 32L5 29l5 3 5-3 5 3c2.48 0 2.518-3 5-3 2.48 0 2.488 3 4.971 3-.014-.005.014-6.498.025-9.004H30v-8C30 6.715 23.284 0 15 0z"/><path fill="#E4E7E7" d="M20.5 13.001a3.499 3.499 0 1 0 0 6.999 3.499 3.499 0 1 0 0-6.999zm-11 0A3.5 3.5 0 1 0 9.499 20 3.5 3.5 0 0 0 9.5 13z"/><path fill="#324D5B" d="M20.5 15a1.5 1.5 0 1 0 .002 3.002A1.5 1.5 0 0 0 20.5 15zm-11 0a1.5 1.5 0 1 0 .002 3.002A1.5 1.5 0 0 0 9.5 15z"/><path fill="#D25147" d="M2.003 14.996C2.003 7.051 8.187.567 16 .05 15.668.028 15.338 0 15 0 6.718 0 .003 6.714.003 14.996c0 0-.003 16.857.01 17.004.923 0 1.503-.404 1.995-.912-.004-1.749-.005-16.092-.005-16.092z"/></svg>