<svg xmlns="http://www.w3.org/2000/svg" width="32" height="23.98"><path fill="#E7A793" d="M32 10.505C32 4.702 25.51-.001 17.506-.001c-2.781 0-5.372.578-7.578 1.564A1.393 1.393 0 0 0 9.675.99H5.288c-.404.502-.404 1.313 0 1.813l.914 1.134C4.761 5.24 3.738 6.791 3.282 8.495l-1.216.327a2.797 2.797 0 0 0-1.97 3.424l.721 2.7a2.79 2.79 0 0 0 3.413 1.979l1.423-.383c1.032 1.062 2.322 1.982 3.814 2.705l-.402 1.816c-.27 1.217.385 2.482 1.459 2.83 1.074.348 2.162-.357 2.432-1.574l.388-1.752c1.319.285 2.715.441 4.161.441 1.812 0 3.535-.25 5.134-.688l.459 1.969c.284 1.213 1.373 1.932 2.432 1.607 1.06-.326 1.688-1.572 1.402-2.785l-.541-2.318C29.798 16.87 32 13.876 32 10.505z"/><path fill="#9B7063" d="M18.012 2.997c-2.505 0-5.009.855-5.009.855v1.139s2.502-.854 5.004-.854 5.009.816 5.009.816V3.817s-2.502-.82-5.004-.82zM8.008 7.983c-.556 0-1.007.446-1.007.998 0 .551.451.998 1.007.998.556 0 1.007-.447 1.007-.998 0-.552-.452-.998-1.007-.998z"/></svg>