<svg xmlns="http://www.w3.org/2000/svg" width="20" height="32"><path fill="#324D5B" d="M9 15v16a1 1 0 1 0 2 0V15H9z"/><path fill="#E2574C" d="M10 0c5.523 0 10 4.478 10 10s-4.477 10.001-10 10.001C4.478 20.002 0 15.522 0 10S4.478 0 10 0z"/><path fill="#E87970" d="M13 5.001A2.999 2.999 0 1 1 13 11a3 3 0 0 1 0-5.999z"/><path fill="#CB4E44" d="M11 19.002C5.479 19.002 1 14.522 1 9a9.95 9.95 0 0 1 2.453-6.547A9.97 9.97 0 0 0 0 10c0 5.522 4.478 10.001 10 10.001a9.97 9.97 0 0 0 7.547-3.453A9.94 9.94 0 0 1 11 19.002z"/></svg>