<svg xmlns="http://www.w3.org/2000/svg" width="32" height="32"><path fill="#F4B459" d="M16.002 1c5.491 0 11.925 2.039 14.218 4.981C30.216 5.978 16.002 32 16.002 32S1.805 5.978 1.773 5.997C3.999 2.955 10.504 1 16.002 1z"/><path fill="#F1D999" d="M16.002 0c5.491 0 13.915 2.536 13.915 2.536L16.002 28.001 2.097 2.588S10.504 0 16.002 0z"/><path fill="#D07C40" d="M12.502 8a2.5 2.5 0 1 1 0 5 2.5 2.5 0 0 1 0-5z"/><path fill="#BB6F39" d="M30.047 1.918C25.589.646 20.891.001 16.082.001h-.003c-4.872 0-9.628.661-14.136 1.966C.474 2.392-.345 3.837.115 5.196c.68 2.013 2.91 1.795 3.591 1.666 3.94-1.133 8.132-1.891 12.404-1.891h.003c4.251 0 8.366.755 12.291 1.875 1.471.42 3.031-.344 3.484-1.705.454-1.36-.37-2.804-1.841-3.223z"/><path fill="#BF392C" d="M22.502 10a6.496 6.496 0 1 0-1.486 12.822l6.004-10.989A6.473 6.473 0 0 0 22.502 10z"/></svg>