<svg xmlns="http://www.w3.org/2000/svg" width="32.031" height="32.006" viewBox="-0.016 -0.003 32.031 32.006"><path fill="#EFC75E" d="M9.627 22.319c1.495 1.489 1.945 3.938.451 5.428-1.495 1.489-6.001 3.148-7.496 1.659-1.494-1.489.172-5.979 1.666-7.468 1.495-1.489 3.885-1.109 5.379.381z"/><path fill="#E2574C" d="M23.432 19.008c2.251 4.667-3.242 15.53-5.782 12.456-1.03-1.246-.962-3.234-3.651-5.794-.004.016.979.174 2.13-.868 2.656-2.046 7.303-5.777 7.303-5.794zM13.973 8.556C8.928 6.27-2.757 11.727.573 14.294c1.35 1.041 3.492.984 6.267 3.699-.017.004-.192-.984.926-2.135 2.189-2.658 6.188-7.302 6.207-7.302z"/><path fill="#CF5349" d="M11.751 8.038l-.218-.011a485.708 485.708 0 0 0-5.461 6.794c-.676.734-.859 1.401-.898 1.795.323.222.656.478 1 .772.084-.398.305-.953.858-1.554 2.105-2.694 5.948-7.404 5.966-7.403a5.364 5.364 0 0 0-1.247-.393zM23.463 19.082c-.658.554-4.828 3.973-7.306 5.924-.819.758-1.546.9-1.909.914.356.358.664.705.926 1.04.326.005 1.111-.098 1.997-.917a466.308 466.308 0 0 0 6.715-5.436 5.404 5.404 0 0 0-.423-1.525z"/><path fill="#D7B354" d="M6.089 21.038c.208.932.847 2.043 1.842 3.036.99.988 2.097 1.624 3.028 1.836.158-1.252-.36-2.623-1.332-3.591-.967-.964-2.307-1.452-3.538-1.281z"/><path fill="#EBEBEB" d="M31.814.16c.752.711-.355 11.267-7.57 18.434-4.467 4.438-7.43 6.156-8.139 6.771-1.961.889-3.262 1.367-7.148-2.495-3.877-3.852-3.131-4.92-2.271-6.765.638-.716 2.405-3.691 6.873-8.13C20.771.809 31.027-.538 31.814.16z"/><path fill="#324D5B" d="M22.795 9.163a3.996 3.996 0 0 1 0 5.643 3.979 3.979 0 0 1-5.633 0 3.996 3.996 0 0 1 0-5.643 3.977 3.977 0 0 1 5.633 0z"/><path fill="#CCD0D2" d="M21.4 10.577a1.986 1.986 0 0 1 0 2.821 2.018 2.018 0 0 1-2.84 0 1.988 1.988 0 0 1 0-2.821 2.018 2.018 0 0 1 2.84 0z"/></svg>