<svg xmlns="http://www.w3.org/2000/svg" width="31.986" height="31.99"><path fill="#EFC75E" d="M.801 18.142L13.911 31.2a2.717 2.717 0 0 0 3.835 0l12.893-12.728c1.355-1.352 1.355-4.315 1.355-4.953V2.717C31.994 1.225 30.909 0 29.412 0L17.985.016c-1.808 0-3.163.45-4.519 1.801L.801 14.321a2.695 2.695 0 0 0 0 3.821z"/><path fill="#D07C40" d="M25.494 9.002c-1.379 0-2.5-1.121-2.5-2.5s1.121-2.5 2.5-2.5 2.5 1.122 2.5 2.5c0 1.379-1.121 2.5-2.5 2.5z"/><path fill="#fff" d="M25.494 5.002a1.5 1.5 0 1 1-.001 3.001 1.5 1.5 0 0 1 .001-3.001z"/><path fill="#D07C40" d="M16.708 23.008l1.371-1-2.804-11.99-1.387 1.012 2.82 11.978zm-7.029-4.197c.391.17.795.211 1.213.123s.819-.298 1.203-.631c.566-.488.866-1.039.902-1.65.035-.611-.189-1.193-.676-1.745-.484-.55-1.033-.847-1.649-.896-.616-.047-1.206.174-1.771.664-.384.332-.648.697-.793 1.096s-.157.802-.04 1.209c.117.406.316.77.598 1.09.285.324.623.57 1.013.74zm-.271-2.858c-.02-.184.048-.34.201-.474.154-.133.318-.177.495-.13.28.072.591.303.931.688.342.389.529.725.562 1.008a.508.508 0 0 1-.192.473.531.531 0 0 1-.504.129c-.277-.069-.588-.299-.93-.688-.343-.389-.531-.725-.563-1.006zm11.277 2.865c.387.172.789.213 1.207.125s.816-.299 1.195-.63c.566-.495.865-1.05.898-1.667s-.189-1.201-.67-1.754c-.48-.552-1.029-.854-1.643-.902-.613-.05-1.203.172-1.768.668-.379.33-.641.699-.783 1.102a1.936 1.936 0 0 0-.039 1.217c.115.406.316.771.6 1.098.284.323.618.572 1.003.743zm-.266-2.875a.516.516 0 0 1 .191-.477.528.528 0 0 1 .496-.134c.279.073.588.306.93.696.34.393.527.73.559 1.014a.529.529 0 0 1-.199.475.508.508 0 0 1-.492.131c-.277-.07-.584-.301-.926-.691-.34-.393-.528-.73-.559-1.014z"/></svg>