<svg xmlns="http://www.w3.org/2000/svg" width="28" height="32"><path fill="#CCD0D2" d="M14 0C6.268 0 0 6.269 0 14.001c0 4.755 2.376 8.949 6 11.479v5.521c0 .552.447.999 1 .999h2v-3a1 1 0 0 1 2 0v3h2v-3a1 1 0 0 1 2 0v3h2v-3a1 1 0 1 1 2 0v3h2a1 1 0 0 0 1-.999V25.48c3.624-2.53 6-6.727 6-11.479C28 6.269 21.73 0 14 0z"/><path fill="#A3A6A8" d="M21.553 15.158l-1.15-1.136 1.117-1.104a1.046 1.046 0 0 0 0-1.493 1.079 1.079 0 0 0-1.513 0l-1.118 1.104-1.117-1.104a1.081 1.081 0 0 0-1.515 0 1.046 1.046 0 0 0 0 1.493l1.118 1.104-1.15 1.136a1.047 1.047 0 0 0 0 1.494 1.08 1.08 0 0 0 1.512 0l1.152-1.138 1.151 1.138a1.08 1.08 0 0 0 1.513 0 1.047 1.047 0 0 0 0-1.494zm-11.014-1.136l1.117-1.104a1.046 1.046 0 0 0 0-1.493 1.079 1.079 0 0 0-1.513 0l-1.118 1.104-1.118-1.104a1.079 1.079 0 0 0-1.513 0 1.046 1.046 0 0 0 0 1.493l1.117 1.104-1.151 1.136a1.048 1.048 0 0 0 0 1.494 1.082 1.082 0 0 0 1.514 0l1.151-1.138 1.151 1.138a1.082 1.082 0 0 0 1.514 0 1.048 1.048 0 0 0 0-1.494l-1.151-1.136z"/><path fill="#B7BBBD" d="M8 31.001V25.48c-3.624-2.53-6-6.727-6-11.479C2 6.606 7.736.565 15 .05 14.668.027 14.337 0 14 0 6.268 0 0 6.269 0 14.001c0 4.755 2.376 8.949 6 11.479v5.521c0 .552.447.999 1 .999h2c-.553 0-1-.447-1-.999z"/></svg>