<svg xmlns="http://www.w3.org/2000/svg" width="32.007" height="28"><path fill="#E4E7E7" d="M3 1.995h26.001v26H3v-26z"/><path fill="#CCD0D2" d="M5.017-.005h21.934l2.051 1.996H3L5.017-.005z"/><path fill="#26A6D1" d="M5 25.995h6v-15H5v15zm8 0h6.001v-15H13v15zm8.001-15v15h6v-15h-6z"/><path fill="#B6B9B9" d="M3 10.995h26.001v2H3v-2z"/><path fill="#E4E7E7" d="M32 7.986l-3.209-2.993H3.225L.015 7.986H.007v2.003a1 1 0 0 0 1 1.001h30a1 1 0 0 0 1-1.001V7.986H32z"/><g fill="#2295BC"><path d="M9 20.995v-3H5v8h6v-5zM13 20.995h2v5h-2zM18.001 22.995h1v3h-1zM22.001 17.995v5h-1v3h6v-8z"/></g><path fill="#51BBA8" d="M7 21.995H3a2 2 0 0 0-2 2v2a2 2 0 0 0 2 2h4a2 2 0 0 0 2-2v-2a2 2 0 0 0-2-2zm22.001 0h-4a2 2 0 0 0-2 2v2a2 2 0 0 0 2 2h4a2 2 0 0 0 2-2v-2a2 2 0 0 0-2-2z"/><path d="M8 26.995H4a2 2 0 0 1-2-2v-2c0-.293.066-.569.18-.82A1.998 1.998 0 0 0 1 23.995v2a2 2 0 0 0 2 2h4c.812 0 1.506-.485 1.82-1.181a1.944 1.944 0 0 1-.82.181zm22.001 0h-4a2 2 0 0 1-2-2v-2c0-.293.064-.569.18-.82a1.996 1.996 0 0 0-1.18 1.82v2a2 2 0 0 0 2 2h4c.811 0 1.506-.485 1.818-1.181a1.928 1.928 0 0 1-.818.181z" fill="#419687"/><g fill="#2295BC"><path d="M21.001 10.995h6v2h-6zM5 10.995h6v2H5zM13 10.995h6.001v2H13z"/></g><path fill="#C2C5C5" d="M.001 7.986H0v.009h31.994v-.009h-.01l-3.207-2.991H3.21z"/><path fill="#C2C5C5" d="M.001 7.986H0v.009h31.994v-.009h-.01l-3.207-2.991H3.21z"/><g fill="#E2574C"><path d="M7 7.995l1.438-3h-2L5 7.995v2.995h2zM11 7.995l1-3h-2l-1 3v2.995h2zM3 7.995l2-3H3.223L.015 7.986H.007v2.003a1 1 0 0 0 1 1.001H3V7.995zm28.994 0l-.024-.037-3.178-2.963h-1.799l2 3v2.995h2.014a.993.993 0 0 0 .986-.933V7.995zM13 4.995h2v5.995h-2zM26.994 10.99V7.995l-1.438-3h-2l1.438 3v2.995zM22.994 10.99V7.995l-1-3h-2l1 3v2.995zM17.001 4.995h2v5.995h-2z"/></g><g fill="#C04A40"><path d="M25.556 4.995h-2l1.438 3h2zM21.994 4.995h-2l1 3h2zM13 4.995h2v3h-2zM10 4.995l-1 3h2l1-3zM6.438 4.995L5 7.995h2l1.438-3zM17.001 4.995h2v3h-2zM31.994 7.995l-.024-.037-3.178-2.963h-1.798l2 3zM3.223 4.995L.015 7.986H.007v.009H3l2-3z"/></g></svg>