<svg xmlns="http://www.w3.org/2000/svg" width="31.011" height="32.009" viewBox="-0.005 0.001 31.011 32.009"><path d="M4.496 18.19l2.452 2.45a1.201 1.201 0 0 0 1.698-1.696l-2.452-2.451 2.453-2.45a1.2 1.2 0 1 0-1.697-1.696l-2.453 2.451-2.452-2.451a1.2 1.2 0 1 0-1.698 1.696l2.453 2.45-2.452 2.451a1.201 1.201 0 1 0 1.697 1.696l2.451-2.45zm23.706 7.306l2.452-2.45a1.2 1.2 0 1 0-1.698-1.696l-2.452 2.451-2.452-2.451a1.2 1.2 0 1 0-1.697 1.696l2.451 2.45-2.45 2.451a1.2 1.2 0 1 0 1.696 1.696l2.452-2.45 2.452 2.45a1.2 1.2 0 1 0 1.698-1.696l-2.452-2.451zM23.106 6.693c.488-.379.57-1.091.183-1.589l-.161-.167-7.769-4.941v.002l-.002-.002-3.159 8.744-.023.232a1.14 1.14 0 0 0 1.128 1.153c.564 0 .866-.421 1.11-.981v-.001l.038-.075 1.422-3.727a17.178 17.178 0 0 1 1.257 5.414l.021.293c.29 5.685-2.211 11.388-7.117 14.871-1.573 1.118-3.811 2.196-5.889 2.863 0 0-2.149.66-2.149 1.725 0 .796.665 1.494 1.443 1.494 1.309 0 6.001-2.151 8.201-3.713 7.513-5.336 10.197-15.117 7.048-23.478l2.951 1.791c.534.29 1.026.435 1.467.092z" fill="#E2574C"/></svg>