<svg xmlns="http://www.w3.org/2000/svg" width="32" height="32"><path fill="#F6C37A" d="M9 0h12a4 4 0 0 1 4 4c0 1.105-.896 3-2 3l-.027 5H7.019l-.02-5c-1.105 0-2-1.895-2-3A4.002 4.002 0 0 1 9 0z"/><path fill="#F4B459" d="M21 0H9a4 4 0 0 0-4 4c0 1.105.895 3 2 3l.02 5h15.953L23 7c1.104 0 2-1.895 2-3a4 4 0 0 0-4-4zm2 6h-.994l-.027 5H8.015l-.017-5h-.997C6.678 5.958 6 4.822 6 4c0-1.654 1.346-3 3-3h12c1.653 0 3 1.346 3 3 0 .819-.681 1.956-1 2z"/><path fill="#324D5B" d="M29 15h2a1 1 0 0 1 1 1v1a1 1 0 0 1-1 1h-2v-3z"/><path fill="#E4E7E7" d="M6 10h18a5 5 0 0 1 5 5v15H1V15a5 5 0 0 1 5-5z"/><path fill="#CDD0D0" d="M9 10H6a5 5 0 0 0-5 5v15h3V15a5 5 0 0 1 5-5z"/><path fill="#165971" d="M3 31a1 1 0 0 0 1 1h1a1 1 0 0 0 1-1v-1H3v1zm21-1v1c0 .553.445 1 1 1h1a1 1 0 0 0 1-1v-1h-3z"/><path fill="#2494BC" d="M1 27h28a1 1 0 0 1 1 1v1a1 1 0 0 1-1 1H1a1 1 0 0 1-1-1v-1a1 1 0 0 1 1-1zM15 16a4 4 0 1 1 0 8 4 4 0 0 1 0-8z"/></svg>