<svg xmlns="http://www.w3.org/2000/svg" width="27.979" height="31.969"><path fill="#484848" d="M.341 29.991L8 22.34a1.16 1.16 0 1 1 1.642 1.641l-4.02 4.016H22.36l-4.021-4.016a1.16 1.16 0 1 1 1.643-1.641l7.658 7.651a1.157 1.157 0 0 1 0 1.638 1.16 1.16 0 0 1-1.641 0l-1.707-1.642H3.688l-1.705 1.642a1.163 1.163 0 0 1-1.643 0 1.156 1.156 0 0 1 .001-1.638z"/><path fill="#BF392C" d="M3.971 0h20a2 2 0 0 1 2 2v22a2 2 0 0 1-2 2h-20a2 2 0 0 1-2-2V2a2 2 0 0 1 2-2z"/><path fill="#fff" d="M3.971 6h20v11h-20V6z"/><path fill="#F0F0F0" d="M3.973 5.964h9.998V17.01H3.973V5.964z"/><path fill="#EBEBEB" d="M8.971 2h10v2h-10V2z"/><path fill="#fff" d="M3.971 23h6v-4h-6v4zm14-4v4h6v-4h-6z"/><path fill="#F4B459" d="M4.971 22h4v-2.002h-4V22zm14-2.002V22h4v-2.002h-4z"/></svg>