<svg xmlns="http://www.w3.org/2000/svg" width="22" height="32"><path fill="#4B616E" d="M5 0h12v32H5V0z"/><path fill="#E4E7E7" d="M11 5c6.075 0 11 4.925 11 11 0 6.076-4.925 11-11 11S0 22.076 0 16C0 9.926 4.925 5 11 5z"/><path fill="#4B616E" d="M15 15h-3v-3a1 1 0 1 0-2 0v4a1 1 0 0 0 1 1h4a1 1 0 1 0 0-2z"/><path fill="#F4B459" d="M11 5C4.925 5 0 9.926 0 16c0 6.076 4.925 11 11 11s11-4.924 11-11c0-6.074-4.925-11-11-11zm0 19.5c-4.688 0-8.5-3.812-8.5-8.5 0-4.688 3.812-8.5 8.5-8.5 4.688 0 8.5 3.813 8.5 8.5 0 4.688-3.812 8.5-8.5 8.5z"/></svg>